<?xml version="1.0" encoding="UTF-8" standalone="no"?>
<!DOCTYPE svg PUBLIC "-//W3C//DTD SVG 1.1//EN"
 "http://www.w3.org/Graphics/SVG/1.1/DTD/svg11.dtd">
<!-- Generated by graphviz version 2.40.1 (20161225.0304)
 -->
<!-- Title: Tree Pages: 1 -->
<svg width="518pt" height="261pt"
 viewBox="0.00 0.00 518.00 261.00" xmlns="http://www.w3.org/2000/svg" xmlns:xlink="http://www.w3.org/1999/xlink">
<g id="graph0" class="graph" transform="scale(1 1) rotate(0) translate(4 257)">
<title>Tree</title>
<polygon fill="#ffffff" stroke="transparent" points="-4,4 -4,-257 514,-257 514,4 -4,4"/>
<!-- 0 -->
<g id="node1" class="node">
<title>0</title>
<path fill="#ffffff" stroke="#000000" d="M300,-253C300,-253 210,-253 210,-253 204,-253 198,-247 198,-241 198,-241 198,-201 198,-201 198,-195 204,-189 210,-189 210,-189 300,-189 300,-189 306,-189 312,-195 312,-201 312,-201 312,-241 312,-241 312,-247 306,-253 300,-253"/>
<text text-anchor="start" x="224" y="-238.8" font-family="Helvetica,sans-Serif" font-size="14.00" fill="#000000">X</text>
<text text-anchor="start" x="234" y="-238.8" font-family="Helvetica,sans-Serif" baseline-shift="sub" font-size="14.00" fill="#000000">0</text>
<text text-anchor="start" x="242" y="-238.8" font-family="Helvetica,sans-Serif" font-size="14.00" fill="#000000"> ≤ 0.5</text>
<text text-anchor="start" x="220" y="-224.8" font-family="Helvetica,sans-Serif" font-size="14.00" fill="#000000">gini = 0.5</text>
<text text-anchor="start" x="209.5" y="-210.8" font-family="Helvetica,sans-Serif" font-size="14.00" fill="#000000">samples = 4</text>
<text text-anchor="start" x="206" y="-196.8" font-family="Helvetica,sans-Serif" font-size="14.00" fill="#000000">value = [2, 2]</text>
</g>
<!-- 1 -->
<g id="node2" class="node">
<title>1</title>
<path fill="#ffffff" stroke="#000000" d="M234,-153C234,-153 144,-153 144,-153 138,-153 132,-147 132,-141 132,-141 132,-101 132,-101 132,-95 138,-89 144,-89 144,-89 234,-89 234,-89 240,-89 246,-95 246,-101 246,-101 246,-141 246,-141 246,-147 240,-153 234,-153"/>
<text text-anchor="start" x="158" y="-138.8" font-family="Helvetica,sans-Serif" font-size="14.00" fill="#000000">X</text>
<text text-anchor="start" x="168" y="-138.8" font-family="Helvetica,sans-Serif" baseline-shift="sub" font-size="14.00" fill="#000000">1</text>
<text text-anchor="start" x="176" y="-138.8" font-family="Helvetica,sans-Serif" font-size="14.00" fill="#000000"> ≤ 0.5</text>
<text text-anchor="start" x="154" y="-124.8" font-family="Helvetica,sans-Serif" font-size="14.00" fill="#000000">gini = 0.5</text>
<text text-anchor="start" x="143.5" y="-110.8" font-family="Helvetica,sans-Serif" font-size="14.00" fill="#000000">samples = 2</text>
<text text-anchor="start" x="140" y="-96.8" font-family="Helvetica,sans-Serif" font-size="14.00" fill="#000000">value = [1, 1]</text>
</g>
<!-- 0&#45;&gt;1 -->
<g id="edge1" class="edge">
<title>0&#45;&gt;1</title>
<path fill="none" stroke="#000000" d="M233.7539,-188.8089C228.0425,-180.1553 221.7908,-170.683 215.8191,-161.635"/>
<polygon fill="#000000" stroke="#000000" points="218.6359,-159.5489 210.2063,-153.1308 212.7936,-163.4048 218.6359,-159.5489"/>
<text text-anchor="middle" x="205.19" y="-173.9223" font-family="Helvetica,sans-Serif" font-size="14.00" fill="#000000">True</text>
</g>
<!-- 4 -->
<g id="node5" class="node">
<title>4</title>
<path fill="#ffffff" stroke="#000000" d="M366,-153C366,-153 276,-153 276,-153 270,-153 264,-147 264,-141 264,-141 264,-101 264,-101 264,-95 270,-89 276,-89 276,-89 366,-89 366,-89 372,-89 378,-95 378,-101 378,-101 378,-141 378,-141 378,-147 372,-153 366,-153"/>
<text text-anchor="start" x="290" y="-138.8" font-family="Helvetica,sans-Serif" font-size="14.00" fill="#000000">X</text>
<text text-anchor="start" x="300" y="-138.8" font-family="Helvetica,sans-Serif" baseline-shift="sub" font-size="14.00" fill="#000000">1</text>
<text text-anchor="start" x="308" y="-138.8" font-family="Helvetica,sans-Serif" font-size="14.00" fill="#000000"> ≤ 0.5</text>
<text text-anchor="start" x="286" y="-124.8" font-family="Helvetica,sans-Serif" font-size="14.00" fill="#000000">gini = 0.5</text>
<text text-anchor="start" x="275.5" y="-110.8" font-family="Helvetica,sans-Serif" font-size="14.00" fill="#000000">samples = 2</text>
<text text-anchor="start" x="272" y="-96.8" font-family="Helvetica,sans-Serif" font-size="14.00" fill="#000000">value = [1, 1]</text>
</g>
<!-- 0&#45;&gt;4 -->
<g id="edge4" class="edge">
<title>0&#45;&gt;4</title>
<path fill="none" stroke="#000000" d="M276.2461,-188.8089C281.9575,-180.1553 288.2092,-170.683 294.1809,-161.635"/>
<polygon fill="#000000" stroke="#000000" points="297.2064,-163.4048 299.7937,-153.1308 291.3641,-159.5489 297.2064,-163.4048"/>
<text text-anchor="middle" x="304.81" y="-173.9223" font-family="Helvetica,sans-Serif" font-size="14.00" fill="#000000">False</text>
</g>
<!-- 2 -->
<g id="node3" class="node">
<title>2</title>
<path fill="#e58139" stroke="#000000" d="M102,-53C102,-53 12,-53 12,-53 6,-53 0,-47 0,-41 0,-41 0,-12 0,-12 0,-6 6,0 12,0 12,0 102,0 102,0 108,0 114,-6 114,-12 114,-12 114,-41 114,-41 114,-47 108,-53 102,-53"/>
<text text-anchor="start" x="22" y="-37.8" font-family="Helvetica,sans-Serif" font-size="14.00" fill="#000000">gini = 0.0</text>
<text text-anchor="start" x="11.5" y="-22.8" font-family="Helvetica,sans-Serif" font-size="14.00" fill="#000000">samples = 1</text>
<text text-anchor="start" x="8" y="-7.8" font-family="Helvetica,sans-Serif" font-size="14.00" fill="#000000">value = [1, 0]</text>
</g>
<!-- 1&#45;&gt;2 -->
<g id="edge2" class="edge">
<title>1&#45;&gt;2</title>
<path fill="none" stroke="#000000" d="M143.9423,-88.7428C130.5828,-79.1786 115.9461,-68.7001 102.5553,-59.1135"/>
<polygon fill="#000000" stroke="#000000" points="104.5697,-56.2511 94.4012,-53.2759 100.4949,-61.9429 104.5697,-56.2511"/>
</g>
<!-- 3 -->
<g id="node4" class="node">
<title>3</title>
<path fill="#399de5" stroke="#000000" d="M234,-53C234,-53 144,-53 144,-53 138,-53 132,-47 132,-41 132,-41 132,-12 132,-12 132,-6 138,0 144,0 144,0 234,0 234,0 240,0 246,-6 246,-12 246,-12 246,-41 246,-41 246,-47 240,-53 234,-53"/>
<text text-anchor="start" x="154" y="-37.8" font-family="Helvetica,sans-Serif" font-size="14.00" fill="#000000">gini = 0.0</text>
<text text-anchor="start" x="143.5" y="-22.8" font-family="Helvetica,sans-Serif" font-size="14.00" fill="#000000">samples = 1</text>
<text text-anchor="start" x="140" y="-7.8" font-family="Helvetica,sans-Serif" font-size="14.00" fill="#000000">value = [0, 1]</text>
</g>
<!-- 1&#45;&gt;3 -->
<g id="edge3" class="edge">
<title>1&#45;&gt;3</title>
<path fill="none" stroke="#000000" d="M189,-88.7428C189,-80.6222 189,-71.8426 189,-63.5093"/>
<polygon fill="#000000" stroke="#000000" points="192.5001,-63.2758 189,-53.2759 185.5001,-63.2759 192.5001,-63.2758"/>
</g>
<!-- 5 -->
<g id="node6" class="node">
<title>5</title>
<path fill="#399de5" stroke="#000000" d="M366,-53C366,-53 276,-53 276,-53 270,-53 264,-47 264,-41 264,-41 264,-12 264,-12 264,-6 270,0 276,0 276,0 366,0 366,0 372,0 378,-6 378,-12 378,-12 378,-41 378,-41 378,-47 372,-53 366,-53"/>
<text text-anchor="start" x="286" y="-37.8" font-family="Helvetica,sans-Serif" font-size="14.00" fill="#000000">gini = 0.0</text>
<text text-anchor="start" x="275.5" y="-22.8" font-family="Helvetica,sans-Serif" font-size="14.00" fill="#000000">samples = 1</text>
<text text-anchor="start" x="272" y="-7.8" font-family="Helvetica,sans-Serif" font-size="14.00" fill="#000000">value = [0, 1]</text>
</g>
<!-- 4&#45;&gt;5 -->
<g id="edge5" class="edge">
<title>4&#45;&gt;5</title>
<path fill="none" stroke="#000000" d="M321,-88.7428C321,-80.6222 321,-71.8426 321,-63.5093"/>
<polygon fill="#000000" stroke="#000000" points="324.5001,-63.2758 321,-53.2759 317.5001,-63.2759 324.5001,-63.2758"/>
</g>
<!-- 6 -->
<g id="node7" class="node">
<title>6</title>
<path fill="#e58139" stroke="#000000" d="M498,-53C498,-53 408,-53 408,-53 402,-53 396,-47 396,-41 396,-41 396,-12 396,-12 396,-6 402,0 408,0 408,0 498,0 498,0 504,0 510,-6 510,-12 510,-12 510,-41 510,-41 510,-47 504,-53 498,-53"/>
<text text-anchor="start" x="418" y="-37.8" font-family="Helvetica,sans-Serif" font-size="14.00" fill="#000000">gini = 0.0</text>
<text text-anchor="start" x="407.5" y="-22.8" font-family="Helvetica,sans-Serif" font-size="14.00" fill="#000000">samples = 1</text>
<text text-anchor="start" x="404" y="-7.8" font-family="Helvetica,sans-Serif" font-size="14.00" fill="#000000">value = [1, 0]</text>
</g>
<!-- 4&#45;&gt;6 -->
<g id="edge6" class="edge">
<title>4&#45;&gt;6</title>
<path fill="none" stroke="#000000" d="M366.0577,-88.7428C379.4172,-79.1786 394.0539,-68.7001 407.4447,-59.1135"/>
<polygon fill="#000000" stroke="#000000" points="409.5051,-61.9429 415.5988,-53.2759 405.4303,-56.2511 409.5051,-61.9429"/>
</g>
</g>
</svg>
